<?xml version="1.0" encoding="UTF-8"?>
<svg width="700pt" height="700pt" version="1.1" viewBox="0 0 700 700" xmlns="http://www.w3.org/2000/svg" xmlns:xlink="http://www.w3.org/1999/xlink">
 <defs>
  <symbol id="w" overflow="visible">
   <path d="m19.734-1.1875c-1.0117 0.53125-2.0703 0.93359-3.1719 1.2031-1.1055 0.26953-2.2578 0.40625-3.4531 0.40625-3.5859 0-6.4219-1-8.5156-3-2.0859-2-3.125-4.7109-3.125-8.1406 0-3.4375 1.0391-6.1562 3.125-8.1562 2.0938-2 4.9297-3 8.5156-3 1.1953 0 2.3477 0.13672 3.4531 0.40625 1.1016 0.27344 2.1602 0.66797 3.1719 1.1875v4.4531c-1.0234-0.69531-2.0312-1.207-3.0312-1.5312-1-0.33203-2.0547-0.5-3.1562-0.5-1.9688 0-3.5234 0.63672-4.6562 1.9062-1.1367 1.2617-1.7031 3.0078-1.7031 5.2344 0 2.2188 0.56641 3.9648 1.7031 5.2344 1.1328 1.2617 2.6875 1.8906 4.6562 1.8906 1.1016 0 2.1562-0.16016 3.1562-0.48438 1-0.33203 2.0078-0.84766 3.0312-1.5469z"/>
  </symbol>
  <symbol id="b" overflow="visible">
   <path d="m14.453-11.734c-0.46094-0.20703-0.91406-0.35938-1.3594-0.45312-0.4375-0.10156-0.88672-0.15625-1.3438-0.15625-1.3242 0-2.3438 0.42969-3.0625 1.2812-0.71094 0.84375-1.0625 2.0586-1.0625 3.6406v7.4219h-5.1562v-16.109h5.1562v2.6406c0.66406-1.0508 1.4258-1.8164 2.2812-2.2969 0.85156-0.48828 1.8828-0.73438 3.0938-0.73438 0.16406 0 0.34766 0.007812 0.54688 0.015625 0.20703 0.011719 0.50391 0.042969 0.89062 0.09375z"/>
  </symbol>
  <symbol id="a" overflow="visible">
   <path d="m18.562-8.0938v1.4531h-12.047c0.125 1.2109 0.5625 2.1211 1.3125 2.7344 0.75 0.60547 1.7969 0.90625 3.1406 0.90625 1.082 0 2.1914-0.16016 3.3281-0.48438 1.1328-0.32031 2.3008-0.8125 3.5-1.4688v3.9688c-1.2188 0.46875-2.4375 0.82031-3.6562 1.0469-1.2188 0.23828-2.4375 0.35938-3.6562 0.35938-2.918 0-5.1836-0.73828-6.7969-2.2188-1.6172-1.4883-2.4219-3.5703-2.4219-6.25 0-2.625 0.78906-4.6875 2.375-6.1875 1.5938-1.5078 3.7812-2.2656 6.5625-2.2656 2.5312 0 4.5547 0.76562 6.0781 2.2969 1.5195 1.5234 2.2812 3.5586 2.2812 6.1094zm-5.2969-1.7188c0-0.97656-0.28906-1.7656-0.85938-2.3594-0.57422-0.60156-1.3203-0.90625-2.2344-0.90625-1 0-1.8125 0.28125-2.4375 0.84375-0.61719 0.5625-1 1.3711-1.1562 2.4219z"/>
  </symbol>
  <symbol id="e" overflow="visible">
   <path d="m9.7031-7.25c-1.0742 0-1.8867 0.18359-2.4375 0.54688-0.54297 0.36719-0.8125 0.90234-0.8125 1.6094 0 0.65625 0.21875 1.1719 0.65625 1.5469 0.4375 0.36719 1.0469 0.54688 1.8281 0.54688 0.96875 0 1.7812-0.34766 2.4375-1.0469 0.66406-0.69531 1-1.5664 1-2.6094v-0.59375zm7.8594-1.9375v9.1875h-5.1875v-2.3906c-0.6875 0.98047-1.4648 1.6953-2.3281 2.1406-0.86719 0.44531-1.918 0.67188-3.1562 0.67188-1.668 0-3.0234-0.48438-4.0625-1.4531-1.043-0.97656-1.5625-2.2422-1.5625-3.7969 0-1.8945 0.64844-3.2812 1.9531-4.1562 1.3008-0.88281 3.3438-1.3281 6.125-1.3281h3.0312v-0.40625c0-0.8125-0.32422-1.4062-0.96875-1.7812-0.63672-0.38281-1.6367-0.57812-3-0.57812-1.1055 0-2.1328 0.10938-3.0781 0.32812-0.94922 0.21875-1.8359 0.55469-2.6562 1v-3.9375c1.1016-0.26953 2.2109-0.47266 3.3281-0.60938 1.1133-0.13281 2.2266-0.20312 3.3438-0.20312 2.9062 0 5 0.57422 6.2812 1.7188 1.2891 1.1484 1.9375 3.0117 1.9375 5.5938z"/>
  </symbol>
  <symbol id="d" overflow="visible">
   <path d="m8.0938-20.688v4.5781h5.3125v3.6719h-5.3125v6.8438c0 0.75 0.14844 1.2578 0.45312 1.5156 0.30078 0.26172 0.89062 0.39062 1.7656 0.39062h2.6562v3.6875h-4.4219c-2.0312 0-3.4766-0.42188-4.3281-1.2656-0.84375-0.85156-1.2656-2.2969-1.2656-4.3281v-6.8438h-2.5625v-3.6719h2.5625v-4.5781z"/>
  </symbol>
  <symbol id="k" overflow="visible">
   <path d="m13.438-13.75v-8.6406h5.1875v22.391h-5.1875v-2.3281c-0.71094 0.94922-1.4922 1.6484-2.3438 2.0938-0.85547 0.4375-1.8438 0.65625-2.9688 0.65625-1.9805 0-3.6094-0.78516-4.8906-2.3594-1.2734-1.582-1.9062-3.6172-1.9062-6.1094 0-2.4766 0.63281-4.5039 1.9062-6.0781 1.2812-1.582 2.9102-2.375 4.8906-2.375 1.1133 0 2.0977 0.22656 2.9531 0.67188 0.86328 0.4375 1.6484 1.1328 2.3594 2.0781zm-3.3906 10.422c1.1016 0 1.9414-0.39844 2.5156-1.2031 0.58203-0.80078 0.875-1.9727 0.875-3.5156 0-1.5312-0.29297-2.6953-0.875-3.5-0.57422-0.8125-1.4141-1.2188-2.5156-1.2188-1.0938 0-1.9336 0.40625-2.5156 1.2188-0.58594 0.80469-0.875 1.9688-0.875 3.5 0 1.543 0.28906 2.7148 0.875 3.5156 0.58203 0.80469 1.4219 1.2031 2.5156 1.2031z"/>
  </symbol>
  <symbol id="j" overflow="visible">
   <path d="m11.047-3.3281c1.1016 0 1.9453-0.39844 2.5312-1.2031 0.58203-0.80078 0.875-1.9727 0.875-3.5156 0-1.5312-0.29297-2.6953-0.875-3.5-0.58594-0.8125-1.4297-1.2188-2.5312-1.2188-1.1055 0-1.9531 0.40625-2.5469 1.2188-0.58594 0.8125-0.875 1.9805-0.875 3.5 0 1.5312 0.28906 2.7031 0.875 3.5156 0.59375 0.80469 1.4414 1.2031 2.5469 1.2031zm-3.4219-10.422c0.70703-0.94531 1.4922-1.6406 2.3594-2.0781 0.86328-0.44531 1.8594-0.67188 2.9844-0.67188 1.9766 0 3.6016 0.79297 4.875 2.375 1.2812 1.5742 1.9219 3.6016 1.9219 6.0781 0 2.4922-0.64062 4.5273-1.9219 6.1094-1.2734 1.5742-2.8984 2.3594-4.875 2.3594-1.125 0-2.1211-0.22656-2.9844-0.67188-0.86719-0.44531-1.6523-1.1406-2.3594-2.0781v2.3281h-5.1562v-22.391h5.1562z"/>
  </symbol>
  <symbol id="i" overflow="visible">
   <path d="m0.35938-16.109h5.1562l4.3281 10.922 3.6875-10.922h5.1406l-6.7656 17.641c-0.6875 1.7891-1.4844 3.0391-2.3906 3.75-0.90625 0.71875-2.1055 1.0781-3.5938 1.0781h-2.9688v-3.375h1.6094c0.875 0 1.5078-0.14062 1.9062-0.42188 0.39453-0.28125 0.70312-0.78125 0.92188-1.5l0.15625-0.4375z"/>
  </symbol>
  <symbol id="h" overflow="visible">
   <path d="m2.7031-21.484h7.0469l4.8906 11.5 4.9219-11.5h7.0469v21.484h-5.2344v-15.719l-4.9531 11.594h-3.5156l-4.9531-11.594v15.719h-5.25z"/>
  </symbol>
  <symbol id="g" overflow="visible">
   <path d="m15.5-15.609v4.2031c-0.69922-0.47656-1.4023-0.83203-2.1094-1.0625-0.71094-0.23828-1.4453-0.35938-2.2031-0.35938-1.4375 0-2.5586 0.42188-3.3594 1.2656-0.79297 0.84375-1.1875 2.0156-1.1875 3.5156 0 1.5117 0.39453 2.6875 1.1875 3.5312 0.80078 0.83594 1.9219 1.25 3.3594 1.25 0.8125 0 1.5781-0.11719 2.2969-0.35938 0.72656-0.23828 1.3984-0.59375 2.0156-1.0625v4.2188c-0.8125 0.29297-1.6367 0.50781-2.4688 0.65625-0.82422 0.15625-1.6523 0.23438-2.4844 0.23438-2.9062 0-5.1836-0.74219-6.8281-2.2344-1.6367-1.5-2.4531-3.5781-2.4531-6.2344s0.81641-4.7266 2.4531-6.2188c1.6445-1.4883 3.9219-2.2344 6.8281-2.2344 0.84375 0 1.6758 0.074219 2.5 0.21875 0.82031 0.14844 1.6406 0.37109 2.4531 0.67188z"/>
  </symbol>
  <symbol id="v" overflow="visible">
   <path d="m2.4688-22.391h5.1562v22.391h-5.1562z"/>
  </symbol>
  <symbol id="u" overflow="visible">
   <path d="m8.25-17.297v13.109h1.9844c2.2578 0 3.9844-0.55469 5.1719-1.6719 1.1953-1.125 1.7969-2.7578 1.7969-4.9062 0-2.125-0.59375-3.7422-1.7812-4.8594-1.1875-1.1133-2.918-1.6719-5.1875-1.6719zm-5.5469-4.1875h5.8438c3.2578 0 5.6875 0.23438 7.2812 0.70312 1.6016 0.46094 2.9727 1.2461 4.1094 2.3594 1.0078 0.96875 1.7578 2.0898 2.25 3.3594 0.48828 1.2617 0.73438 2.6953 0.73438 4.2969 0 1.625-0.24609 3.0742-0.73438 4.3438-0.49219 1.2734-1.2422 2.3906-2.25 3.3594-1.1484 1.1172-2.5273 1.9062-4.1406 2.375-1.6172 0.46094-4.0312 0.6875-7.25 0.6875h-5.8438z"/>
  </symbol>
  <symbol id="c" overflow="visible">
   <path d="m10.141-12.828c-1.1367 0-2.0078 0.41406-2.6094 1.2344-0.59375 0.82422-0.89062 2.0078-0.89062 3.5469 0 1.543 0.29688 2.7266 0.89062 3.5469 0.60156 0.82422 1.4727 1.2344 2.6094 1.2344 1.125 0 1.9844-0.41016 2.5781-1.2344 0.59375-0.82031 0.89062-2.0039 0.89062-3.5469 0-1.5391-0.29688-2.7227-0.89062-3.5469-0.59375-0.82031-1.4531-1.2344-2.5781-1.2344zm0-3.6719c2.7695 0 4.9375 0.75 6.5 2.25 1.5625 1.4922 2.3438 3.5586 2.3438 6.2031 0 2.6484-0.78125 4.7188-2.3438 6.2188s-3.7305 2.25-6.5 2.25c-2.7812 0-4.9609-0.75-6.5312-2.25-1.5625-1.5-2.3438-3.5703-2.3438-6.2188 0-2.6445 0.78125-4.7109 2.3438-6.2031 1.5703-1.5 3.75-2.25 6.5312-2.25z"/>
  </symbol>
  <symbol id="f" overflow="visible">
   <path d="m18.672-9.8125v9.8125h-5.1719v-7.5156c0-1.3828-0.03125-2.3438-0.09375-2.875s-0.17188-0.91406-0.32812-1.1562c-0.19922-0.34375-0.47656-0.60938-0.82812-0.79688-0.34375-0.1875-0.73438-0.28125-1.1719-0.28125-1.0742 0-1.918 0.41797-2.5312 1.25-0.61719 0.83594-0.92188 1.9844-0.92188 3.4531v7.9219h-5.1562v-16.109h5.1562v2.3594c0.78125-0.94531 1.6016-1.6406 2.4688-2.0781 0.875-0.44531 1.8438-0.67188 2.9062-0.67188 1.8516 0 3.2578 0.57422 4.2188 1.7188 0.96875 1.1367 1.4531 2.793 1.4531 4.9688z"/>
  </symbol>
  <symbol id="t" overflow="visible">
   <path d="m2.4688-16.109h5.1562v16.109h-5.1562zm0-6.2812h5.1562v4.2031h-5.1562z"/>
  </symbol>
  <symbol id="s" overflow="visible">
   <path d="m15.062-15.609v3.9062c-1.1055-0.45703-2.1719-0.80078-3.2031-1.0312-1.0234-0.22656-1.9844-0.34375-2.8906-0.34375-0.98047 0-1.7109 0.125-2.1875 0.375-0.46875 0.24219-0.70312 0.61719-0.70312 1.125 0 0.40625 0.17578 0.72656 0.53125 0.95312 0.36328 0.21875 1.0078 0.38281 1.9375 0.48438l0.90625 0.125c2.6328 0.33594 4.4062 0.88672 5.3125 1.6562 0.91406 0.77344 1.375 1.9766 1.375 3.6094 0 1.7188-0.63672 3.0117-1.9062 3.875-1.2617 0.86719-3.1484 1.2969-5.6562 1.2969-1.0625 0-2.168-0.089844-3.3125-0.26562-1.1367-0.16406-2.3047-0.41406-3.5-0.75v-3.9062c1.0312 0.5 2.082 0.875 3.1562 1.125 1.082 0.25 2.1797 0.375 3.2969 0.375 1.0078 0 1.7656-0.14062 2.2656-0.42188 0.50781-0.28125 0.76562-0.69141 0.76562-1.2344 0-0.46875-0.17969-0.8125-0.53125-1.0312-0.34375-0.22656-1.0391-0.40625-2.0781-0.53125l-0.90625-0.10938c-2.3047-0.28906-3.9141-0.82031-4.8281-1.5938-0.91797-0.78125-1.375-1.9609-1.375-3.5469 0-1.707 0.58203-2.9727 1.75-3.7969 1.1641-0.82031 2.957-1.2344 5.375-1.2344 0.95703 0 1.957 0.074219 3 0.21875 1.0391 0.13672 2.1758 0.35938 3.4062 0.67188z"/>
  </symbol>
  <symbol id="r" overflow="visible">
   <path d="m13.078-22.391v3.375h-2.8438c-0.73047 0-1.2422 0.13672-1.5312 0.40625-0.28125 0.26172-0.42188 0.71875-0.42188 1.375v1.125h4.3906v3.6719h-4.3906v12.438h-5.1562v-12.438h-2.5625v-3.6719h2.5625v-1.125c0-1.7578 0.48828-3.0547 1.4688-3.8906 0.97656-0.84375 2.4922-1.2656 4.5469-1.2656z"/>
  </symbol>
  <symbol id="q" overflow="visible">
   <path d="m17.406-13.438c0.65625-1 1.4297-1.7578 2.3281-2.2812 0.89453-0.51953 1.8789-0.78125 2.9531-0.78125 1.8516 0 3.2656 0.57422 4.2344 1.7188 0.96875 1.1367 1.4531 2.793 1.4531 4.9688v9.8125h-5.1875v-8.4062c0.007812-0.125 0.015625-0.25391 0.015625-0.39062 0.007813-0.13281 0.015625-0.32812 0.015625-0.57812 0-1.1328-0.16797-1.957-0.5-2.4688-0.33594-0.51953-0.875-0.78125-1.625-0.78125-0.98047 0-1.7344 0.40625-2.2656 1.2188-0.53125 0.80469-0.80859 1.9688-0.82812 3.5v7.9062h-5.1719v-8.4062c0-1.7812-0.15625-2.9258-0.46875-3.4375-0.30469-0.51953-0.85156-0.78125-1.6406-0.78125-0.99219 0-1.7578 0.40625-2.2969 1.2188-0.53125 0.8125-0.79688 1.9766-0.79688 3.4844v7.9219h-5.1719v-16.109h5.1719v2.3594c0.63281-0.91406 1.3594-1.6016 2.1719-2.0625 0.82031-0.45703 1.7266-0.6875 2.7188-0.6875 1.1133 0 2.0977 0.27344 2.9531 0.8125 0.85156 0.53125 1.5 1.2812 1.9375 2.25z"/>
  </symbol>
  <symbol id="p" overflow="visible">
   <path d="m18.672-9.8125v9.8125h-5.1719v-7.4844c0-1.4062-0.03125-2.375-0.09375-2.9062s-0.17188-0.91406-0.32812-1.1562c-0.19922-0.34375-0.47656-0.60938-0.82812-0.79688-0.34375-0.1875-0.73438-0.28125-1.1719-0.28125-1.0742 0-1.918 0.41797-2.5312 1.25-0.61719 0.83594-0.92188 1.9844-0.92188 3.4531v7.9219h-5.1562v-22.391h5.1562v8.6406c0.78125-0.94531 1.6016-1.6406 2.4688-2.0781 0.875-0.44531 1.8438-0.67188 2.9062-0.67188 1.8516 0 3.2578 0.57422 4.2188 1.7188 0.96875 1.1367 1.4531 2.793 1.4531 4.9688z"/>
  </symbol>
  <symbol id="o" overflow="visible">
   <path d="m2.7031-21.484h6.1875l7.8125 14.734v-14.734h5.25v21.484h-6.1875l-7.8125-14.734v14.734h-5.25z"/>
  </symbol>
  <symbol id="n" overflow="visible">
   <path d="m2.2969-6.2812v-9.8281h5.1875v1.6094c0 0.875-0.007813 1.9766-0.015625 3.2969-0.011719 1.3125-0.015625 2.1875-0.015625 2.625 0 1.293 0.03125 2.2266 0.09375 2.7969 0.070313 0.57422 0.19141 0.99219 0.35938 1.25 0.20703 0.33594 0.47656 0.59375 0.8125 0.78125 0.34375 0.17969 0.73828 0.26562 1.1875 0.26562 1.0703 0 1.9141-0.41016 2.5312-1.2344 0.61328-0.82031 0.92188-1.9688 0.92188-3.4375v-7.9531h5.1406v16.109h-5.1406v-2.3281c-0.78125 0.9375-1.6094 1.6328-2.4844 2.0781-0.86719 0.44531-1.8203 0.67188-2.8594 0.67188-1.8672 0-3.2891-0.56641-4.2656-1.7031-0.96875-1.1445-1.4531-2.8125-1.4531-5z"/>
  </symbol>
  <symbol id="m" overflow="visible">
   <path d="m2.7031-21.484h9.2031c2.7266 0 4.8203 0.60938 6.2812 1.8281 1.4688 1.2109 2.2031 2.9375 2.2031 5.1875s-0.73438 3.9844-2.2031 5.2031c-1.4609 1.2109-3.5547 1.8125-6.2812 1.8125h-3.6562v7.4531h-5.5469zm5.5469 4.0156v6h3.0625c1.0703 0 1.8984-0.25781 2.4844-0.78125 0.58203-0.51953 0.875-1.2578 0.875-2.2188 0-0.96875-0.29297-1.707-0.875-2.2188-0.58594-0.51953-1.4141-0.78125-2.4844-0.78125z"/>
  </symbol>
  <symbol id="l" overflow="visible">
   <path d="m2.4688-16.109h5.1562v15.828c0 2.1562-0.52344 3.8008-1.5625 4.9375-1.0312 1.1328-2.5312 1.7031-4.5 1.7031h-2.5469v-3.375h0.89062c0.97656 0 1.6484-0.22656 2.0156-0.67188 0.36328-0.4375 0.54688-1.3047 0.54688-2.5938zm0-6.2812h5.1562v4.2031h-5.1562z"/>
  </symbol>
 </defs>
 <g>
  <path d="m403.05 124.97c-11.789-2.3594-24.168-4.7148-35.957-5.8945h-2.3594c2.9492-1.7695 7.6641-2.9492 10.02-3.5352 6.4844-1.7695 12.969-2.3594 18.863-4.7148 0.58984 0 0-1.1797 0-0.58984-7.0742 1.7695-14.148 2.9492-21.223 4.7148-2.3594 0.58984-7.0742 2.3594-10.02 4.125-5.8906-1.1797-12.375-1.1797-18.859-1.1797-7.0742 0-14.148 0.58984-21.223 2.3594-7.0742 1.7695-14.148 5.3047-15.914 12.969 0 1.1797 1.7695 1.7695 2.3594 0.58984 1.1797-4.7148 5.8945-7.0742 10.02-8.8438 6.4844-2.3594 12.969-2.9492 19.453-3.5352 7.0742-0.58984 14.738 0 21.809 0.58984v2.3594c0 0.58984 0.58984 0.58984 0.58984 0 0-0.58984 0-1.7695 0.58984-2.3594 7.6641 0.58984 15.328 1.1797 23.578 2.3594 5.8945 0.58984 12.379 1.7695 18.273 2.3594 1.1797-0.003907 1.1797-1.7734 0-1.7734"/>
  <path d="m248.61 331.88c-0.58984 0-0.58984 0 0 0-15.328-7.6641-28.883-18.273-35.367-34.191-1.1797-2.3594-1.7695-4.7148-2.9492-7.6641 0.58984-0.58984 1.7695-1.1797 2.3594-1.7695s0-1.1797-0.58984-1.1797c-0.58984 0.58984-1.1797 1.1797-2.3594 1.7695-4.125-15.328-2.3594-31.242 1.1797-46.57 4.125-19.453 11.789-38.906 22.398-56 7.0742-11.199 15.914-20.633 27.707-27.117 1.1797-0.58984 0-2.9492-1.1797-2.3594-17.094 8.8438-29.473 25.348-38.906 41.852-2.3594 4.7148-4.7148 10.02-7.0742 14.738-10.02 8.2539-18.863 18.273-28.293 27.707-0.58984 0.58984 0 1.1797 0.58984 0.58984 10.02-7.6641 17.684-17.684 26.527-25.938-4.7148 12.969-8.2539 25.938-10.609 39.496-0.58984 4.7148-1.1797 9.4297-1.1797 14.148-5.8945 7.0742-12.969 14.148-19.453 21.223 0 0 0 0.58984 0.58984 0.58984 7.0742-6.4844 12.969-12.969 19.453-20.043 0 4.125 0 7.6641 0.58984 11.789-3.5352 4.125-8.2539 7.6641-12.379 11.199 0 0 0 0.58984 0.58984 0.58984 4.7148-2.3594 8.8438-5.8945 12.379-10.02 0.58984 3.5352 1.1797 7.0742 2.3594 10.609-1.7695 1.7695-2.9492 2.9492-4.125 4.7148-1.7695 2.3594-3.5352 4.7148-5.3047 6.4844-1.1797 1.7695-3.5352 4.125-4.7148 6.4844 0 0.58984 0 0.58984 0.58984 0.58984 1.7695-1.1797 2.9492-3.5352 4.7148-5.3047 1.7695-1.7695 2.9492-4.125 4.7148-5.8945 1.1797-1.7695 2.9492-3.5352 4.7148-5.3047 1.7695 5.3047 4.125 10.02 7.0742 14.738 2.3594 4.125 5.8945 7.6641 8.8438 11.199-2.3594 1.7695-3.5352 4.125-4.125 7.0742l0.58984 0.58984c0.58984-1.1797 1.1797-2.9492 1.7695-4.125 0.58984-1.1797 1.1797-1.7695 2.3594-2.3594 2.9492 2.9492 6.4844 5.8945 10.02 8.2539-2.9492 0-6.4844-0.58984-8.8438 1.1797-4.7148-1.7695-8.8438-4.125-13.559-6.4844 0.58984-0.58984 1.1797-1.7695 1.7695-2.3594 1.1797-2.3594 2.9492-4.125 4.125-6.4844 0.58984-0.58984-0.58984-1.1797-1.1797-0.58984-1.1797 1.7695-2.3594 3.5352-3.5352 5.8945-0.58984 1.1797-1.1797 1.7695-2.3594 2.9492-3.5352-1.7695-6.4844-3.5352-9.4297-5.3047-1.7695-1.1797-2.9492-1.7695-4.7148-2.9492 1.7695-1.7695 2.9492-4.125 4.7148-5.8945 1.7695-1.7695 3.5352-3.5352 5.3047-4.7148 1.1797 2.3594 1.1797 4.7148 1.1797 7.0742-0.58984 2.3594-1.7695 4.125-2.3594 6.4844 0 0.58984 0.58984 0.58984 0.58984 0.58984 3.5352-3.5352 3.5352-10.02 1.7695-14.738 0-0.58984-0.58984-1.1797-1.1797-0.58984-2.3594 1.7695-4.125 3.5352-5.8945 5.3047s-3.5352 4.125-4.125 6.4844c-5.8945-4.125-11.789-9.4297-17.094-14.738-12.969-12.379-22.988-27.707-28.293-44.801s-5.8945-35.957-2.3594-53.641c4.125-20.633 14.148-40.672 27.117-57.77 12.379-16.504 28.293-30.652 47.746-38.906 18.273-7.6641 39.496-8.8438 58.949-5.3047 5.8945 1.1797 11.789 2.9492 17.684 4.7148 1.7695 0.58984 2.3594-0.58984 2.3594-1.7695 5.3047-0.58984 10.609-1.1797 15.914 0 2.3594 0.58984 4.7148 1.1797 6.4844 1.7695-2.3594 1.1797-4.7148 2.9492-7.0742 4.7148-3.5352 2.9492-7.0742 5.8945-10.609 8.8438-2.9492 2.9492-5.8945 5.8945-6.4844 10.02-3.5352 1.1797-5.8945 2.9492-7.0742 5.8945-1.7695-1.1797-3.5352-2.3594-5.3047-3.5352-1.1797-1.1797-2.3594-2.9492-2.3594-4.125-0.58984-2.3594-0.58984-5.3047 0-7.0742 0.58984-2.3594-2.3594-3.5352-3.5352-1.7695-0.58984 1.1797-1.7695 2.3594-2.3594 4.125-1.1875-1.1758-1.7773 0.003906-1.7773 1.7734 0 2.9492 1.1797 5.8945 2.9492 7.6641 4.125 5.3047 10.609 8.8438 17.094 10.609 7.0742 2.3594 14.148 3.5352 21.223 2.9492 2.9492 0 6.4844 0 9.4297-1.1797 0.58984 0 1.7695-0.58984 2.9492-1.1797 4.125 2.9492 8.8438 5.8945 12.969 8.2539 10.609 5.8945 21.223 10.609 32.422 14.148 0.58984 0 1.1797 0.58984 1.7695 0.58984 1.7695 2.3594 2.9492 4.7148 4.125 7.6641-9.4297 11.789-21.223 21.223-31.832 31.832-0.58984 0.58984 0 0.58984 0.58984 0.58984 10.609-10.02 22.398-19.453 31.242-31.242 4.125 10.609 4.7148 22.398 5.3047 33.012v13.559c1.1797-0.58984 1.7695-0.58984 2.9492-1.1797v-12.379c0-8.2539-1.1797-17.684-3.5352-25.938-1.7695-5.3047-4.125-10.609-7.6641-14.738 4.125 1.1797 8.2539 2.3594 12.379 3.5352l0.58984 0.58984c-0.58984-0.58984 0.58984 0.58984 0.58984 1.1797 1.1797 1.7695 1.7695 4.125 2.3594 6.4844 1.7695 5.3047 2.3594 10.609 3.5352 15.914 1.7695 7.6641 2.3594 15.328 2.9492 23.578 2.3594 0 4.125-0.58984 6.4844-0.58984-0.58984-11.199-2.9492-21.809-5.3047-32.422-1.1797-4.125-1.7695-8.2539-4.125-12.379 4.125 0.58984 7.6641 1.1797 11.789 1.7695 11.199 1.1797 23.578 0.58984 34.191-3.5352 3.5352-1.1797 7.6641-2.9492 10.609-5.3047 0.58984-0.58984 0.58984-1.1797 0.58984-1.1797s0.58984-0.58984 0.58984-1.1797c0-5.3047-2.9492-9.4297-5.8945-13.559-2.9492-4.125-6.4844-8.8438-10.609-11.199-3.5352-9.4297-8.8438-18.273-15.914-25.348-6.4844-7.0742-14.148-12.379-22.398-16.504-17.094-8.2539-36.547-8.8438-54.82-3.5352-7.0742 1.7695-13.559 4.7148-20.043 8.2539-9.4297-5.8945-22.398-7.0742-32.422-2.9492-18.863-6.4844-39.496-8.8438-58.949-5.8945-20.043 3.5352-38.316 12.969-53.641 27.117-8.2539 7.6641-15.328 16.504-21.809 25.938-6.4844 9.4297-11.789 18.863-15.914 28.883-7.6641 18.273-11.199 38.316-9.4297 57.77 1.7695 18.273 8.2539 35.957 18.863 51.285 11.199 16.504 26.527 28.883 43.621 37.727 8.8438 4.7148 17.684 8.2539 27.117 11.199 2.9258 0.58203 5.8711 0.58203 8.2305 0.58203 3.5352 0 6.4844-0.58984 9.4297-1.1797 2.9492 1.7695 6.4844 2.9492 10.02 4.7148-0.58594-2.3555-1.7656-5.3047-2.3555-7.6602m81.348-222.82c1.1797 0.58984 2.9492 1.1797 4.125 1.7695 1.1797 0.58984 1.1797-1.1797 0.58984-1.7695-0.58984-0.58984-1.1797-1.1797-1.7695-1.7695 4.125-2.3594 8.2539-4.125 12.379-5.3047 17.094-5.8945 36.547-5.8945 53.051 1.1797 17.094 7.6641 30.062 21.809 38.906 37.727 1.7695 4.125 5.3047 7.6641 8.2539 11.199 2.9492 3.5352 5.3047 7.6641 7.0742 12.379-5.3047 1.1797-10.02 2.9492-15.328 3.5352-5.8945 1.1797-11.199 1.1797-17.094 1.1797-11.789 0-23.578-2.3594-34.777-5.3047-11.199-2.9492-22.398-7.6641-33.012-12.969-5.3047-2.3594-10.02-5.3047-14.738-7.6641-1.1797-0.58984-2.9492-1.7695-4.125-2.3594l-0.58984-0.58984c-3.5352-2.3594-6.4844-4.7148-10.609-5.8945-1.1797-0.58984-2.9492-0.58984-4.7148-0.58984-0.58984 0-1.7695 0.58984-2.3594 1.1797 0 0.58984-0.58984 1.1797 0 1.7695-0.58984-0.58984 0 0.58984 0.58984 0.58984 0.58984 0.58984 1.1797 1.1797 1.7695 1.1797 1.1797 0 1.7695 0.58984 2.9492 1.1797 0.58984 0.58984 1.7695 1.1797 2.3594 1.1797h-5.8945c-6.4844 0-12.379-0.58984-18.273-2.3594-0.58984 0-1.1797-0.58984-2.3594-0.58984 0-0.58984 0.58984-1.1797 1.1797-1.7695 1.1797-1.1797 2.3594-2.3594 3.5352-4.125 0.58984 0 0.58984-0.58984 1.1797-1.1797 0 0 0-0.58984 0.58984-0.58984 0 0 0-0.58984 0.58984-0.58984 0.58984-0.58984 1.1797-1.1797 1.1797-1.7695 1.1797-1.7695 2.9492-2.9492 4.125-4.7148 2.9492-2.3594 5.8945-5.3047 8.8438-7.6641 4.125-1.7617 8.25-4.1211 12.375-6.4805"/>
  <path d="m377.71 173.3c-2.3594 1.1797-4.7148 2.9492-7.0742 4.7148-5.3047 4.125-10.609 8.2539-15.914 12.379-11.199 8.8438-22.988 17.684-33.602 26.527-1.7695 1.1797-3.5352 2.9492-4.7148 4.125-0.58984 0.58984 0 1.1797 0.58984 1.1797 19.453-15.328 39.496-30.062 58.949-45.98 1.1758-1.1758 1.7656-1.7656 1.7656-2.9453 0.58594 0 0.58594 0 0 0"/>
  <path d="m339.98 223.41c12.969-11.199 26.527-21.223 39.496-31.832 0.58984-0.58984-0.58984-1.1797-0.58984-0.58984-13.559 10.609-27.707 20.633-40.672 33.012 0.58594-1.1797 1.1758-0.58984 1.7656-0.58984"/>
  <path d="m352.36 225.18c11.199-9.4297 21.809-18.863 33.012-28.293 0.58984-0.58984-0.58984-1.1797-1.1797-0.58984-11.199 10.02-22.398 19.453-34.191 28.883 0.58984-0.58984 1.1797-0.58984 2.3594 0"/>
  <path d="m370.63 226.36c4.125-4.125 8.8438-8.2539 12.969-12.379 0.58984-0.58984-0.58984-1.1797-1.1797-0.58984-4.125 4.7148-8.8438 8.8438-13.559 12.969h1.7695"/>
  <path d="m214.42 202.19c-10.02 2.9492-18.863 8.2539-25.348 15.914 0 0.58984 0 0.58984 0.58984 0.58984 7.0742-7.6641 15.328-12.969 25.348-15.914 0.58984-0.003906 0-0.58984-0.58984-0.58984"/>
  <path d="m202.63 242.27c-6.4844 7.6641-12.969 15.328-20.043 22.398 0 0 0 0.58984 0.58984 0.58984 7.0742-7.0703 13.559-14.734 19.453-22.988 0.58984 0 0-0.58984 0 0"/>
  <path d="m193.2 263.5c-5.3047 4.125-11.199 8.2539-15.914 13.559v0c5.3047-4.7188 10.609-8.8438 15.914-13.559 0.58984 0 0.58984 0 0 0"/>
  <path d="m223.85 113.18c-35.957 7.0742-57.18 40.672-67.789 73.094-5.8945 18.273-8.8438 38.316-8.2539 57.18 0 0.58984 1.1797 0.58984 1.1797 0 0-17.094 2.3594-34.191 7.0742-50.695 4.7148-17.684 12.379-34.777 23.578-49.516 11.199-14.738 26.527-25.938 44.801-29.473 0.58984 0.58984 0-0.58984-0.58984-0.58984"/>
  <path d="m245.66 320.67c-2.3594-2.3555-4.7148-4.7148-7.0742-8.25 0-0.58984-0.58984 0-0.58984 0 2.3594 3.5352 4.7148 6.4844 7.6641 9.4297 0.58984 0 0.58984-0.58984 0-1.1797"/>
  <path d="m365.91 141.47c-10.609-9.4297-25.938-15.328-40.086-15.914-0.58984 0-0.58984 0.58984 0 0.58984 14.742 1.7656 28.887 6.4844 40.086 15.324v0"/>
  <path d="m539.81 337.77c-2.3594-17.094-9.4297-33.602-17.684-48.926-9.4297-17.684-21.223-34.191-35.957-48.336-11.789-11.789-26.527-22.398-43.031-25.938-10.02-2.3594-20.043-1.1797-30.062 1.7695-5.8945 1.1797-11.789 3.5352-17.684 4.7148-2.9492 0.58984-5.8945 1.7695-8.8438 2.3594-2.9492 0.58984-5.8945 0.58984-8.2539 1.1797 0 0-0.58984 0-0.58984 0.58984-4.7148 1.1797-9.4297 2.9492-12.379 6.4844-1.7695-1.7695-3.5352-3.5352-5.8945-4.7148-1.7695-1.1797-3.5352-2.3594-5.8945-2.9492 1.1797-0.58984 0.58984-2.3594-0.58984-2.3594-5.3047-0.58984-11.199-1.1797-16.504-1.1797-7.0742 0-14.148 0-21.223 0.58984-14.738 1.1797-30.062 2.9492-43.031 10.02-5.3047 2.9492-10.609 7.0742-14.148 12.969-1.7695 2.9492-2.3594 5.8945-2.9492 9.4297 0 1.7695 0 3.5352 0.58984 5.3047 0 0.58984-0.58984 1.7695-0.58984 2.3594-0.58984 0-1.1797 0.58984-1.1797 1.7695v3.5352c-4.125 21.223-5.8945 42.441-3.5352 64.254 2.3594 23.578 10.02 47.156 22.398 67.199 21.809 34.191 58.359 53.641 96.086 65.43 7.0742 2.3594 14.738 4.125 21.809 5.8945 7.6641 1.7695 15.328 2.9492 22.398 4.125 1.1797 0 2.3594-0.58984 2.3594-1.1797 2.3594 0.58984 4.7148 0.58984 6.4844 0.58984 3.5352 0 7.0742 0 10.02-1.1797 0 0.58984 0.58984 1.1797 1.7695 0.58984l1.7695-1.7695c3.5352-1.1797 7.6641-2.9492 11.199-4.125 3.5352-1.7695 8.2539-2.3594 11.789-5.3047 0.58984-0.58984 0-1.7695-1.1797-1.7695-4.125-0.58984-7.6641 1.7695-11.199 2.9492-1.7695 0.58984-4.125 1.1797-5.8945 1.7695 0.58984-0.58984 1.1797-1.7695 1.7695-2.3594 2.9492-3.5352 5.8945-7.0742 9.4297-10.609 5.8945-6.4844 12.969-11.789 20.043-17.094 0.58984 0 0.58984 0 0.58984-0.58984 7.6641-2.3594 14.738-6.4844 21.223-10.02 7.0742-4.125 13.559-9.4297 19.453-15.328 4.125-4.125 7.6641-8.8438 10.609-13.559 0 0.58984-0.58984 1.1797-0.58984 1.1797-1.7695 2.9492-2.9492 6.4844-4.7148 9.4297-1.7695 2.9492-2.9492 5.3047-4.7148 8.2539-1.1797 2.3594-2.9492 4.7148-4.125 7.6641v0.58984c-5.3047 5.8945-11.199 10.609-17.094 14.738-10.02 7.0742-20.633 12.969-30.652 20.043-1.7695 1.1797 0 4.125 2.3594 2.9492 11.789-4.7148 22.988-11.789 33.012-19.453 4.7148-4.125 9.4297-8.2539 12.969-12.969 2.3594-2.9492 4.125-6.4844 6.4844-10.02 0.58984-0.58984 0.58984-1.1797 1.1797-1.1797 1.7695-2.3594 3.5352-5.3047 5.3047-8.2539 1.7695-2.3594 2.9492-5.3047 4.125-8.2539 2.3594-4.7148 4.125-9.4297 5.8945-14.148 2.3594-6.4844 4.125-12.969 5.3047-19.453 1.7695-8.8438 2.3594-18.273 0.58984-27.117 0 1.1797 1.1758 0.59375 1.1758-0.58594m-156.8-111.41h1.1797c-1.1797 1.1797-2.9492 2.3594-3.5352 4.125h-1.7695c-2.9492 0.58984-4.125 3.5352-4.7148 5.8945-2.3594-0.58984-4.125-1.1797-6.4844-1.7695 3.5352-4.125 9.4297-5.8945 15.324-8.25m-43.621 217.52c-12.379-5.8945-24.168-12.969-35.367-21.809-15.328-12.379-27.117-27.707-35.367-45.98-10.609-23.578-15.328-49.516-14.738-76.043 0-4.125 0-7.6641 0.58984-11.789 1.1797 13.559 3.5352 27.117 8.2539 40.086 3.5352 10.609 9.4297 20.633 16.504 29.473 7.0742 9.4297 15.914 17.094 24.758 24.758 7.6641 5.8945 15.914 11.789 24.168 16.504-2.9492 0.58984-5.8945 1.1797-8.2539 2.3594-3.5352 1.7695-7.6641 4.125-10.02 7.6641-0.58984 0.58984 0 1.7695 1.1797 1.1797 3.5352-1.1797 6.4844-4.125 9.4297-5.8945 3.5352-1.7695 7.0742-2.9492 11.199-3.5352 6.4844 3.5352 13.559 6.4844 20.043 9.4297-4.125 1.1797-7.6641 2.3594-11.199 4.7148-4.7148 2.3594-10.02 5.8945-12.969 11.199-0.58984 0.58984 0.58984 1.7695 1.1797 1.1797 4.125-3.5352 8.2539-7.0742 12.969-10.02 4.125-2.3594 8.8438-4.125 13.559-5.3047 6.4844 2.3594 12.969 4.7148 19.453 7.0742-11.793 8.2461-24.762 14.141-35.371 24.754 0.58984 0 0.58984 0 0 0m53.051 18.273c-17.684-4.7148-35.367-10.02-51.875-17.684 11.789-8.8438 24.758-15.328 35.957-24.758 4.7148 1.1797 8.8438 2.3594 13.559 3.5352-8.2539 4.125-17.684 8.2539-24.168 14.738-0.58984 0.58984 0.58984 1.1797 1.1797 1.1797 4.7148-2.3594 9.4297-5.3047 14.148-7.6641 4.125-2.3594 8.8438-4.7148 12.969-7.0742 2.3594 0.58984 4.125 1.1797 6.4844 1.1797-3.5352 1.7695-7.0742 2.9492-10.609 4.7148-4.7148 2.3594-10.02 5.8945-12.969 10.02-0.58984 0.58984 0 1.7695 1.1797 1.1797 4.7148-2.3594 8.8438-5.3047 12.969-8.2539 4.7148-2.9492 9.4297-5.3047 14.148-7.0742 4.125 0.58984 8.2539 1.7695 12.379 2.3594-2.3594 1.1797-5.3047 2.9492-7.6641 4.125-5.3047 2.9492-11.199 5.8945-15.914 10.02-0.58984 0.58984 0.58984 1.7695 1.1797 1.1797 5.8945-2.3594 11.199-5.8945 16.504-8.8438 3.5352-1.7695 7.0742-4.125 10.02-5.8945 2.3594 0.58984 4.7148 0.58984 7.0742 1.1797 2.3594 0.58984 5.3047 0.58984 7.6641 1.1797h-0.58984c-14.738 10.023-31.246 17.688-43.625 30.656m56-13.559c-3.5352 3.5352-7.0742 7.0742-10.02 11.199-1.1797 1.1797-2.3594 2.9492-3.5352 4.7148-0.58984 0-1.1797 0-1.1797 0.58984-3.5352 1.1797-7.0742 1.1797-10.609 1.7695h-5.8945c-1.7695 0-3.5352-0.58984-5.8945-0.58984-0.58984 0-1.1797 0.58984-1.1797 1.1797-5.3047-1.1797-10.02-2.9492-15.328-4.125 14.148-10.609 28.883-18.863 43.621-28.293 1.1797-0.58984 0.58984-2.3594-0.58984-2.9492 6.4844 0.58984 12.379 1.1797 18.863 1.1797-7.6641 5.3047-15.328 11.199-21.223 18.273-0.58984 0.58984 0 1.1797 0.58984 1.1797 7.6641-5.8945 14.738-12.969 22.988-18.273l0.58984-0.58984h4.125c0 0.58984 1.1797 1.1797 1.7695 1.1797-5.8945 4.1211-11.789 8.8398-17.094 13.555m43.031-33.012c-4.125 2.3594-8.2539 5.3047-12.969 7.6641-4.125 2.3594-7.6641 4.125-11.789 6.4844-12.969-1.7695-25.348-3.5352-38.316-5.8945 0-0.58984-1.1797-1.1797-1.7695-0.58984h-0.58984c-7.6641-1.1797-14.738-2.9492-21.809-4.125-21.809-4.7148-43.621-11.199-63.664-21.223-20.043-10.02-38.906-22.988-53.641-40.086-2.9492-2.9492-5.3047-6.4844-7.6641-9.4297-13.555-31.242-20.629-68.969-3.5352-100.8 0.58984-0.58984-0.58984-1.1797-1.1797-0.58984-16.504 29.473-11.789 65.43 1.7695 94.906-2.3594-4.125-4.7148-8.2539-6.4844-12.379-4.125-10.02-7.0742-20.633-8.8438-31.832-1.7695-11.199-2.9492-22.398-3.5352-33.602 1.1797 0.58984 2.9492-0.58984 2.9492-2.3594-0.58984-2.9492 0-6.4844 0.58984-8.2539 0.58984-1.7695 0.58984-2.3594 1.1797-4.125 0-0.58984 0.58984-1.1797 0.58984-1.7695l1.1797-1.1797c3.5352-5.3047 7.6641-7.6641 12.969-10.609 12.379-5.8945 27.707-8.2539 41.852-9.4297 6.4844-0.58984 12.379-1.1797 18.863-1.1797 2.3594 0 4.7148-0.58984 7.0742-0.58984v0.58984 0.58984c0 0.58984 0 1.1797 0.58984 1.1797 0-0.58984 0-0.58984 0.58984 0.58984 0.58984 0.58984 1.1797 0.58984 1.7695 0.58984 0.58984 0 1.7695 0.58984 2.3594 0.58984 1.7695 0.58984 3.5352 1.7695 5.3047 2.3594 1.1797 0.58984 1.7695 1.1797 2.9492 1.7695-0.58984 0.58984-0.58984 1.1797 0 1.7695 1.7695 2.9492 5.3047 4.125 8.2539 5.3047 2.9492 1.1797 6.4844 0.58984 9.4297 0 0.58984 0 1.1797-0.58984 1.1797-1.1797 0.58984-1.7695 0.58984-4.7148 2.3594-5.8945v0.58984c0 1.1797 1.1797 2.3594 2.3594 1.7695 1.7695-1.1797 2.9492-2.3594 4.7148-4.125 0.58984 0 1.1797-0.58984 1.7695-0.58984s0-0.58984 0-1.1797c0.58984-0.58984 0.58984-0.58984 1.1797-1.1797 2.9492-1.7695 6.4844-2.9492 10.02-3.5352 1.1797 0 1.1797-0.58984 1.1797-1.7695 4.7148-1.1797 10.02-2.3594 14.738-3.5352 10.609-2.3594 20.633-2.9492 31.242 0 17.094 5.3047 31.832 17.684 43.621 31.242 11.789 13.559 21.809 28.293 30.062 43.621 5.3047 10.02 10.02 20.043 13.559 30.652-0.58984 0-0.58984 0.58984-0.58984 1.1797 0.58984 1.7695 0.58984 3.5352 1.1797 5.3047-1.1797 17.094-2.9492 34.777-10.609 50.695-8.2695 15.32-19.469 25.93-32.438 33.594"/>
  <path d="m438.42 373.73c-8.8438-0.58984-17.684-1.7695-26.527-3.5352-1.7695-0.58984-4.125-1.1797-5.8945-1.7695 5.8945-18.863 10.609-37.727 15.914-56.59 0-0.58984-1.1797-1.1797-1.1797-0.58984-5.3047 18.863-11.199 37.727-15.328 56.59-6.4844-1.7695-12.379-4.7148-18.273-7.6641-14.738-8.2539-27.117-20.633-31.242-37.137-1.7695-7.0742-1.1797-14.738 0-21.809h1.7695c1.7695 0 1.1797-2.9492 0-2.9492h-1.1797c1.1797-5.8945 2.3594-11.199 4.125-17.094 1.7695-6.4844 4.7148-13.559 8.2539-19.453 2.3594-3.5352 6.4844-8.2539 11.199-7.6641 2.3594 0.58984 4.125 1.7695 5.8945 3.5352 1.7695 1.1797 2.9492-0.58984 1.7695-1.7695-4.125-4.125-9.4297-7.0742-15.328-4.7148-5.8945 2.3594-9.4297 8.2539-11.789 13.559-5.3047 10.02-8.8438 21.809-11.199 33.012h-3.5352c-4.125 0-7.6641 0-11.789 0.58984-0.58984 0-0.58984 1.1797 0 1.1797 2.3594 0 4.125 0.58984 6.4844 0.58984-3.5352 0.58984-7.0742 1.7695-10.609 2.9492-0.58984 0-0.58984 1.1797 0.58984 1.1797 4.125-0.58984 8.2539-1.1797 12.379-1.7695 2.3594-0.58984 4.125-0.58984 6.4844-0.58984-1.1797 7.6641-1.1797 15.914 1.1797 23.578-4.7148 0-10.02 0-14.738 0.58984-0.58984 0-0.58984 1.1797 0 1.7695 5.3047 0.58984 10.609 1.1797 15.914 0.58984 0 0.58984 0.58984 1.1797 0.58984 1.7695-7.6641-0.58984-16.504 1.1797-23.578 4.125-1.1797 0.58984 0 1.7695 0.58984 1.7695 7.6641-1.1797 15.914-4.125 23.578-3.5352 2.9492 6.4844 7.0742 12.969 12.379 18.273 12.379 12.969 30.062 20.633 47.746 24.168 8.8438 1.7695 18.273 2.9492 27.117 1.1797 0.58984-0.003906-0.58594-2.3633-1.7656-2.3633"/>
  <path d="m466.71 321.26c-4.7148-7.0742-10.609-14.148-15.328-21.223-2.3594-4.125-4.7148-8.2539-7.0742-12.379 0.58984 0 1.1797-0.58984 1.7695-0.58984 1.7695-0.58984 2.9492-1.1797 4.125-1.7695 0.58984-0.58984 0-1.7695-0.58984-1.1797-1.7695 0.58984-4.7148 1.1797-6.4844 1.7695-2.3594-4.125-4.7148-7.6641-7.6641-11.789 1.1797-1.1797 1.7695-1.7695 2.3594-3.5352 0.58984-0.58984-0.58984-1.7695-1.1797-1.1797-1.1797 0.58984-2.3594 1.1797-2.9492 2.3594-7.0742-8.8438-16.504-15.914-27.117-18.273-1.7695-0.58984-1.7695 1.7695-0.58984 2.3594 4.125 2.9492 8.8438 5.3047 12.379 7.6641s6.4844 5.3047 8.8438 8.2539c1.1797 1.1797 1.7695 2.3594 2.9492 3.5352 0 0 0 0.58984-0.58984 0.58984-0.58984 0.58984-0.58984 1.7695-0.58984 2.9492 0 0 0 0.58984 0.58984 0.58984h0.58984c0.58984 0.58984 0.58984 0.58984 1.1797 0.58984 1.1797 0.58984 1.7695-0.58984 1.1797-1.1797 3.5352 5.3047 6.4844 11.199 9.4297 16.504 2.3594 4.7148 5.3047 8.8438 8.2539 12.969 2.3594 3.5352 5.3047 7.0742 8.2539 10.609 4.125 4.7148 8.8438 10.609 8.8438 17.094 0 3.5352-1.7695 6.4844-4.125 8.8438-3.5352 4.125-8.2539 7.6641-11.789 11.789-1.1797 1.1797 0.58984 2.9492 1.7695 2.3594 7.6641-4.125 15.914-11.199 17.684-20.043 2.3555-5.8984-0.58984-12.379-4.1289-17.688m-33.598-43.031c-0.58984 0-0.58984 0 0 0-0.58984 0-0.58984 0 0 0-0.58984 0 0 0 0 0"/>
  <path d="m446.67 318.32c0.58984 0 0-1.1797 0-1.1797h-1.7695v-0.58984c1.1797-9.4297-4.7148-18.273-14.148-21.223-1.1797-0.58984-2.3594 0.58984-2.9492 1.7695-0.58984 5.8945-0.58984 11.789 3.5352 17.094 0.58984 0.58984 0.58984 0.58984 1.1797 1.1797-1.1797 4.125-2.9492 8.2539-4.125 12.379-1.1797-0.58984-2.3594-1.1797-3.5352-1.1797-8.8438 0-10.609 14.148-6.4844 19.453 0.58984 0.58984 1.7695 0.58984 1.7695 0 1.1797-2.9492 0.58984-7.0742 1.7695-10.02 0.58984-1.1797 1.1797-2.3594 1.7695-2.9492 0.58984-0.58984 1.1797-1.1797 1.7695-1.1797h1.7695c0 0.58984 0 1.1797-0.58984 1.1797-1.7695 7.6641-4.125 15.914-4.7148 23.578 0 1.1797 1.7695 2.3594 2.3594 1.1797 2.9492-7.0742 4.125-14.148 5.8945-21.223 0.58984 1.1797 0.58984 1.7695 0.58984 2.9492 0.58984 2.3594 1.1797 5.3047 1.7695 7.6641 0 1.1797 1.7695 1.1797 1.7695 0 1.1797-5.3047 0.58984-10.609-1.7695-14.738 0-0.58984-0.58984-1.1797-1.1797-1.7695 1.1797-4.7148 2.3594-8.8438 3.5352-13.559 2.9492 1.1797 6.4844 1.7695 9.4297 1.1797v0.58984c-2.9492 15.328-11.199 29.473-9.4297 45.391 0 0.58984 1.7695 1.1797 1.7695 0 1.1797-7.6641 2.9492-15.328 5.3047-22.988 1.7695-7.0742 4.125-14.738 4.125-22.398 1.1758 0 1.1758 0 0.58594-0.58984m-9.4297-3.5391c0-0.58984 0-0.58984 0.58984-1.1797 0.58984-1.7695-2.3594-4.125-3.5352-1.7695-1.7695-2.9492-2.9492-7.0742-2.3594-10.609 2.3594 1.1797 4.7148 2.3594 6.4844 4.7148 2.3594 2.9492 3.5352 7.0742 4.125 10.609v0.58984c-1.7695-0.58594-3.5352-1.1758-5.3047-2.3555"/>
  <path d="m453.75 327.16c0-0.58984-1.1797-1.1797-1.1797 0 0 6.4844-1.1797 12.379-2.3594 18.273-0.58984 2.9492-1.7695 5.8945-2.3594 9.4297-0.58984 2.3594-2.3594 5.8945-1.1797 8.2539 0.58984 1.1797 1.7695 1.1797 2.3594 0.58984 1.1797-0.58984 1.1797-1.7695 1.1797-2.9492 0.58984-1.7695 0.58984-3.5352 1.1797-5.3047 0.58984-2.9492 1.1797-6.4844 1.1797-9.4297 0.58984-5.8945 1.1797-12.379 1.1797-18.863"/>
  <path d="m494.42 424.42c-4.7148 2.9492-9.4297 5.8945-13.559 9.4297-4.7148 3.5352-8.8438 8.2539-11.199 13.559-0.58984 0.58984 0.58984 1.7695 1.1797 1.1797 4.125-3.5352 7.6641-8.2539 11.789-11.789 4.125-3.5352 8.8438-7.0742 13.559-10.02 1.7656-1.1797 0-3.5391-1.7695-2.3594"/>
  <path d="m331.73 408.5c-2.3594 1.7695-4.7148 2.9492-7.0742 4.125-2.3594 1.1797-4.7148 2.9492-6.4844 5.3047-0.58984 0.58984 0.58984 1.1797 1.1797 0.58984 2.3594-1.1797 4.125-2.9492 6.4844-4.7148 2.3594-1.7695 4.7148-2.9492 7.0742-4.125 1.1797 0 0-1.7695-1.1797-1.1797"/>
  <path d="m311.09 393.18c-7.6641 1.1797-15.914 5.3047-21.223 10.609-0.58984 0.58984 0 1.1797 0.58984 1.1797 3.5352-1.7695 6.4844-4.7148 10.02-6.4844 3.5352-1.7695 7.0742-3.5352 11.199-4.125 0.59375 0 0.003906-1.7695-0.58594-1.1797"/>
  <path d="m387.73 292.97c0-1.1797-1.1797-1.7695-1.7695-2.3594-2.3594-0.58984-4.7148-1.1797-6.4844 0-1.7695 0.58984-2.9492 2.3594-3.5352 4.125-0.58984 1.7695 1.7695 4.125 2.9492 2.3594 0.58984-0.58984 1.1797-1.7695 1.7695-2.3594s1.7695-0.58984 2.3594 0c0 2.3594 0 4.7148 1.1797 7.0742 0.58984 0.58984 1.1797 1.1797 1.7695 0 2.3516-2.3555 1.7617-5.8945 1.7617-8.8398"/>
  <path d="m413.66 282.95c-6.4844 11.199-12.379 23.578-17.094 35.957-0.58984 1.7695-1.1797 4.125-1.7695 5.8945 0-0.58984 0-1.1797-0.58984-1.7695-0.58984-1.1797-1.7695-1.7695-2.9492-1.1797-2.9492 1.7695-5.8945 3.5352-8.8438 5.3047 5.3047-8.2539 10.609-15.914 15.328-24.758 4.125-7.0742 7.0742-14.148 9.4297-21.809 1.1797-2.9492 1.1797-6.4844 1.7695-9.4297 0-2.3594 0-5.8945-2.3594-7.6641-0.58984-0.58984-1.1797-0.58984-1.1797 0.58984-0.58984 2.3594 0 4.7148 0 7.0742-0.58984 2.9492-1.1797 6.4844-2.3594 9.4297-2.3594 7.6641-6.4844 14.148-10.02 21.223-4.125 7.0742-8.2539 14.738-12.969 21.809-1.7695 2.3594-2.9492 5.3047-4.7148 7.6641-2.3594-4.7148-4.125-9.4297-5.8945-14.738 0-0.58984 0-1.1797-0.58984-1.1797 0.58984 0.58984 1.1797 0.58984 1.1797 1.1797 1.7695 1.1797 5.3047 2.3594 7.0742 1.1797 0.58984-0.58984 0.58984-1.1797 0.58984-1.7695-1.1797-1.7695-3.5352-2.3594-4.7148-3.5352-1.1797-1.1797-1.7695-2.3594-2.3594-3.5352-1.1797-2.9492 0.58984-7.6641 1.7695-10.609 2.9492-7.6641 7.6641-14.738 7.6641-22.988 0-0.58984-1.1797-1.1797-1.7695 0-0.58984 1.7695-1.1797 3.5352-2.3594 4.7148-1.1797 1.7695-2.3594 4.125-3.5352 5.8945-1.7695 2.9492-3.5352 5.8945-4.7148 9.4297 0-1.7695 0.58984-2.9492 1.1797-4.7148 1.1797-4.125 2.9492-8.2539 5.3047-12.379 2.3594-4.125 5.8945-7.0742 8.8438-10.609 1.1797 0.58984 2.3594 1.7695 2.9492 2.9492 1.1797 2.3594 0.58984 5.8945 0 8.2539 0 1.1797 1.1797 1.1797 1.7695 0.58984 0.58984-3.5352 0.58984-7.0742-0.58984-10.02-0.58984-1.1797-1.7695-2.9492-3.5352-4.125 0 0-0.58984-0.58984-1.1797-0.58984-0.58984 0-1.1797 0-1.1797 0.58984l-0.58984 0.58984c-7.0742 4.125-12.969 12.969-15.328 20.633-2.9492 8.2539-2.9492 17.094-1.7695 25.938 1.1797 8.2539 4.125 15.914 8.2539 22.988-1.1797 1.7695-1.7695 3.5352-2.3594 5.3047-0.58984 1.7695 1.7695 2.9492 2.3594 1.1797 0.58984-1.1797 1.1797-2.3594 2.3594-2.9492 4.125 6.4844 9.4297 12.379 15.328 17.094v2.9492c0 0.58984 1.1797 1.1797 1.7695 0v-1.7695l0.58984 0.58984c2.3594 1.7695 4.7148 2.9492 7.0742 4.125 1.1797 0.58984 1.7695-1.1797 1.1797-1.7695-2.9492-1.7695-5.8945-4.125-8.2539-6.4844 0.58984-3.5352 1.1797-6.4844 1.7695-10.02h0.58984c2.9492-1.7695 1.7695-6.4844 1.7695-9.4297 4.125-17.094 11.199-33.602 20.043-49.516 0.57812-1.7773-1.7773-2.957-2.3672-1.7773m-35.957 53.051c4.125-3.5352 8.2539-7.0742 12.969-9.4297 0.58984 2.3594 1.1797 4.7148 1.1797 7.0742v0.58984c-1.1797 5.8945-2.3594 11.199-2.3594 17.094-4.1289-4.7188-8.2539-10.023-11.789-15.328"/>
  <path d="m354.12 274.11c-2.9492-1.1797-5.3047-2.9492-8.2539-4.7148-2.3594-1.7695-5.3047-2.9492-8.2539-4.125-0.58984-0.58984-1.1797 1.1797-0.58984 1.1797 5.3047 3.5352 10.02 7.0742 15.328 10.02 2.3594 1.1758 3.5391-1.1797 1.7695-2.3594"/>
  <path d="m426.63 248.76c-1.1797 0.58984-2.3594 1.1797-3.5352 1.7695-1.1797 1.1797-1.1797 2.3594-1.7695 3.5352 0 1.7695 2.3594 2.3594 2.3594 0.58984 0-1.1797 0-1.7695 0.58984-2.9492s1.7695-1.7695 2.3594-2.3594c0.58594 0.003906-0.003907-1.1758-0.003907-0.58594"/>
  <path d="m526.84 343.07c0-7.6641-2.3594-15.328-4.7148-22.398-2.9492-8.8438-6.4844-17.684-11.199-25.938-0.58984-0.58984-1.7695-0.58984-1.1797 0.58984 4.7148 15.328 13.559 30.062 14.738 46.57 0.58984 7.0742-1.1797 14.148-3.5352 21.223-3.5352 8.8438-10.02 16.504-15.914 23.578-0.58984 0.58984 0.58984 1.7695 1.1797 1.1797 11.781-11.793 21.211-27.711 20.625-44.805"/>
  <path d="m258.04 188.04c-10.02 14.148-18.863 29.473-24.168 45.98-5.3047 17.094-7.6641 35.367-7.0742 53.641 0 0.58984 1.1797 0.58984 1.1797 0 0.58984-17.684 1.7695-34.777 7.0742-51.875 4.7148-17.094 13.555-33.012 22.988-47.746 0.58984 0 0-0.58984 0 0"/>
 </g>
</svg>
